<?xml version="1.0" encoding="utf-8" standalone="no"?>
<!DOCTYPE svg PUBLIC "-//W3C//DTD SVG 1.1//EN"
  "http://www.w3.org/Graphics/SVG/1.1/DTD/svg11.dtd">
<svg xmlns:xlink="http://www.w3.org/1999/xlink" width="777.6pt" height="468pt" viewBox="0 0 777.6 468" xmlns="http://www.w3.org/2000/svg" version="1.1">
 <metadata>
  <rdf:RDF xmlns:dc="http://purl.org/dc/elements/1.1/" xmlns:cc="http://creativecommons.org/ns#" xmlns:rdf="http://www.w3.org/1999/02/22-rdf-syntax-ns#">
   <cc:Work>
    <dc:type rdf:resource="http://purl.org/dc/dcmitype/StillImage"/>
    <dc:format>image/svg+xml</dc:format>
    <dc:creator>
     <cc:Agent>
      <dc:title>graph_synthesis.visualize_evidence</dc:title>
     </cc:Agent>
    </dc:creator>
   </cc:Work>
  </rdf:RDF>
 </metadata>
 <defs>
  <style type="text/css">*{stroke-linejoin: round; stroke-linecap: butt}</style>
 </defs>
 <g id="figure_1">
  <g id="patch_1">
   <path d="M 0 468 
L 777.6 468 
L 777.6 0 
L 0 0 
z
" style="fill: #ffffff"/>
  </g>
  <g id="axes_1">
   <g id="PathCollection_1">
    <defs>
     <path id="me664446c3f" d="M -24.494897 24.494897 
L 24.494897 24.494897 
L 24.494897 -24.494897 
L -24.494897 -24.494897 
z
" style="stroke: #1f77b4"/>
    </defs>
    <g clip-path="url(#p3a67b46603)">
     <use xlink:href="#me664446c3f" x="688.86648" y="227.666806" style="fill: #1f77b4; stroke: #1f77b4"/>
    </g>
   </g>
   <g id="PathCollection_2">
    <defs>
     <path id="m4f84d6caa7" d="M 0 20 
C 5.304062 20 10.391597 17.892674 14.142136 14.142136 
C 17.892674 10.391597 20 5.304062 20 0 
C 20 -5.304062 17.892674 -10.391597 14.142136 -14.142136 
C 10.391597 -17.892674 5.304062 -20 0 -20 
C -5.304062 -20 -10.391597 -17.892674 -14.142136 -14.142136 
C -17.892674 -10.391597 -20 -5.304062 -20 0 
C -20 5.304062 -17.892674 10.391597 -14.142136 14.142136 
C -10.391597 17.892674 -5.304062 20 0 20 
z
" style="stroke: #ff7f0e"/>
    </defs>
    <g clip-path="url(#p3a67b46603)">
     <use xlink:href="#m4f84d6caa7" x="117.31128" y="381.199331" style="fill: #ff7f0e; stroke: #ff7f0e"/>
    </g>
   </g>
   <g id="PathCollection_3">
    <defs>
     <path id="mc647e36b80" d="M 0 20 
C 5.304062 20 10.391597 17.892674 14.142136 14.142136 
C 17.892674 10.391597 20 5.304062 20 0 
C 20 -5.304062 17.892674 -10.391597 14.142136 -14.142136 
C 10.391597 -17.892674 5.304062 -20 0 -20 
C -5.304062 -20 -10.391597 -17.892674 -14.142136 -14.142136 
C -17.892674 -10.391597 -20 -5.304062 -20 0 
C -20 5.304062 -17.892674 10.391597 -14.142136 14.142136 
C -10.391597 17.892674 -5.304062 20 0 20 
z
" style="stroke: #2ca02c"/>
    </defs>
    <g clip-path="url(#p3a67b46603)">
     <use xlink:href="#mc647e36b80" x="117.31128" y="304.433068" style="fill: #2ca02c; stroke: #2ca02c"/>
    </g>
   </g>
   <g id="PathCollection_4">
    <defs>
     <path id="m27d036eb22" d="M 0 20 
C 5.304062 20 10.391597 17.892674 14.142136 14.142136 
C 17.892674 10.391597 20 5.304062 20 0 
C 20 -5.304062 17.892674 -10.391597 14.142136 -14.142136 
C 10.391597 -17.892674 5.304062 -20 0 -20 
C -5.304062 -20 -10.391597 -17.892674 -14.142136 -14.142136 
C -17.892674 -10.391597 -20 -5.304062 -20 0 
C -20 5.304062 -17.892674 10.391597 -14.142136 14.142136 
C -10.391597 17.892674 -5.304062 20 0 20 
z
" style="stroke: #d62728"/>
    </defs>
    <g clip-path="url(#p3a67b46603)">
     <use xlink:href="#m27d036eb22" x="117.31128" y="227.666806" style="fill: #d62728; stroke: #d62728"/>
    </g>
   </g>
   <g id="PathCollection_5">
    <defs>
     <path id="m4569485ac7" d="M 0 20 
C 5.304062 20 10.391597 17.892674 14.142136 14.142136 
C 17.892674 10.391597 20 5.304062 20 0 
C 20 -5.304062 17.892674 -10.391597 14.142136 -14.142136 
C 10.391597 -17.892674 5.304062 -20 0 -20 
C -5.304062 -20 -10.391597 -17.892674 -14.142136 -14.142136 
C -17.892674 -10.391597 -20 -5.304062 -20 0 
C -20 5.304062 -17.892674 10.391597 -14.142136 14.142136 
C -10.391597 17.892674 -5.304062 20 0 20 
z
" style="stroke: #9467bd"/>
    </defs>
    <g clip-path="url(#p3a67b46603)">
     <use xlink:href="#m4569485ac7" x="117.31128" y="150.900543" style="fill: #9467bd; stroke: #9467bd"/>
    </g>
   </g>
   <g id="PathCollection_6">
    <defs>
     <path id="mb436af4020" d="M 0 20 
C 5.304062 20 10.391597 17.892674 14.142136 14.142136 
C 17.892674 10.391597 20 5.304062 20 0 
C 20 -5.304062 17.892674 -10.391597 14.142136 -14.142136 
C 10.391597 -17.892674 5.304062 -20 0 -20 
C -5.304062 -20 -10.391597 -17.892674 -14.142136 -14.142136 
C -17.892674 -10.391597 -20 -5.304062 -20 0 
C -20 5.304062 -17.892674 10.391597 -14.142136 14.142136 
C -10.391597 17.892674 -5.304062 20 0 20 
z
" style="stroke: #8c564b"/>
    </defs>
    <g clip-path="url(#p3a67b46603)">
     <use xlink:href="#mb436af4020" x="117.31128" y="74.13428" style="fill: #8c564b; stroke: #8c564b"/>
    </g>
   </g>
   <g id="text_1">
    <text style="font-size: 11px; font-family: 'DejaVu Sans'" transform="translate(673.242183 224.543321)">Claim</text>
    <text style="font-size: 11px; font-family: 'DejaVu Sans'" transform="translate(678.368355 236.860915)">133</text>
   </g>
   <g id="text_2">
    <text style="font-size: 9px; font-family: 'DejaVu Sans'; text-anchor: middle" x="117.31128" y="383.682769" transform="rotate(-0 117.31128 383.682769)">12640810</text>
   </g>
   <g id="patch_2">
    <path d="M 416.18984 380.105281 
Q 531.687649 304.433822 646.250268 229.375079 
" style="fill: none; opacity: 0.7; stroke-dasharray: 1,1.65; stroke-dashoffset: 0; stroke: #000000; stroke-linecap: round"/>
    <path d="M 641.364183 229.946194 
L 646.250268 229.375079 
L 643.775509 233.626616 
" style="fill: none; opacity: 0.7; stroke-dasharray: 1,1.65; stroke-dashoffset: 0; stroke: #000000; stroke-linecap: round"/>
   </g>
   <g id="text_3">
    <text style="font-size: 10px; font-family: 'DejaVu Sans'; text-anchor: start" x="191.613456" y="381.199331" transform="rotate(-0 191.613456 381.199331)">G: NEI / F: NEI / gold: NEI</text>
   </g>
   <g id="text_4">
    <text style="font-size: 9px; font-family: 'DejaVu Sans'; text-anchor: middle" x="117.31128" y="306.916506" transform="rotate(-0 117.31128 306.916506)">16280642</text>
   </g>
   <g id="patch_3">
    <path d="M 416.418685 303.811076 
Q 531.689399 266.049741 645.897635 228.636461 
" style="fill: none; opacity: 0.7; stroke: #000000; stroke-linecap: round"/>
    <path d="M 641.031396 227.915546 
L 645.897635 228.636461 
L 642.401159 232.096903 
" style="fill: none; opacity: 0.7; stroke: #000000; stroke-linecap: round"/>
   </g>
   <g id="text_5">
    <text style="font-size: 10px; font-family: 'DejaVu Sans'; text-anchor: start" x="191.613456" y="304.433068" transform="rotate(-0 191.613456 304.433068)">G: S / F: S / gold: S</text>
   </g>
   <g id="text_6">
    <text style="font-size: 9px; font-family: 'DejaVu Sans'; text-anchor: middle" x="117.31128" y="230.150243" transform="rotate(-0 117.31128 230.150243)">17934082</text>
   </g>
   <g id="patch_4">
    <path d="M 416.518805 227.666806 
Q 531.686689 227.666806 645.736539 227.666806 
" style="fill: none; opacity: 0.7; stroke-dasharray: 1,1.65; stroke-dashoffset: 0; stroke: #000000; stroke-linecap: round"/>
    <path d="M 641.336539 225.466806 
L 645.736539 227.666806 
L 641.336539 229.866806 
" style="fill: none; opacity: 0.7; stroke-dasharray: 1,1.65; stroke-dashoffset: 0; stroke: #000000; stroke-linecap: round"/>
   </g>
   <g id="text_7">
    <text style="font-size: 10px; font-family: 'DejaVu Sans'; text-anchor: start" x="191.613456" y="227.666806" transform="rotate(-0 191.613456 227.666806)">G: NEI / F: NEI / gold: NEI</text>
   </g>
   <g id="text_8">
    <text style="font-size: 9px; font-family: 'DejaVu Sans'; text-anchor: middle" x="117.31128" y="153.38398" transform="rotate(-0 117.31128 153.38398)">38485364</text>
   </g>
   <g id="patch_5">
    <path d="M 416.418685 151.522535 
Q 531.689399 189.28387 645.897635 226.69715 
" style="fill: none; opacity: 0.7; stroke-dasharray: 1,1.65; stroke-dashoffset: 0; stroke: #000000; stroke-linecap: round"/>
    <path d="M 642.401159 223.236708 
L 645.897635 226.69715 
L 641.031396 227.418065 
" style="fill: none; opacity: 0.7; stroke-dasharray: 1,1.65; stroke-dashoffset: 0; stroke: #000000; stroke-linecap: round"/>
   </g>
   <g id="text_9">
    <text style="font-size: 10px; font-family: 'DejaVu Sans'; text-anchor: start" x="191.613456" y="150.900543" transform="rotate(-0 191.613456 150.900543)">G: NEI / F: NEI / gold: NEI</text>
   </g>
   <g id="text_10">
    <text style="font-size: 9px; font-family: 'DejaVu Sans'; text-anchor: middle" x="117.31128" y="76.617718" transform="rotate(-0 117.31128 76.617718)">6969753</text>
   </g>
   <g id="patch_6">
    <path d="M 416.18984 75.228331 
Q 531.687649 150.899789 646.250268 225.958532 
" style="fill: none; opacity: 0.7; stroke-dasharray: 1,1.65; stroke-dashoffset: 0; stroke: #000000; stroke-linecap: round"/>
    <path d="M 643.775509 221.706995 
L 646.250268 225.958532 
L 641.364183 225.387417 
" style="fill: none; opacity: 0.7; stroke-dasharray: 1,1.65; stroke-dashoffset: 0; stroke: #000000; stroke-linecap: round"/>
   </g>
   <g id="text_11">
    <text style="font-size: 10px; font-family: 'DejaVu Sans'; text-anchor: start" x="191.613456" y="74.13428" transform="rotate(-0 191.613456 74.13428)">G: NEI / F: NEI / gold: NEI</text>
   </g>
   <g id="text_12">
    <text style="font-size: 15px; font-family: 'DejaVu Sans'; text-anchor: middle" x="388.8" y="14.397896" transform="rotate(-0 388.8 14.397896)">A real supplied claim-document neighborhood</text>
   </g>
  </g>
  <g id="text_13">
   <text style="font-size: 9px; font-family: 'DejaVu Sans'; text-anchor: middle" x="388.8" y="463.128041" transform="rotate(-0 388.8 463.128041)">Real IDs; largest candidate incidence, ties by claim ID. Dotted = candidate only. G=generic; F=few-shot; S=support; NEI=no-info.</text>
  </g>
 </g>
 <defs>
  <clipPath id="p3a67b46603">
   <rect x="3.00024" y="20.397896" width="771.59952" height="429.891071"/>
  </clipPath>
 </defs>
</svg>
